# xmcd
#
# Track frame offsets: 
#        182
#        20097
#        42415
#        59792
#        82045
#        103787
#        123537
#        146097
#        164787
#        185005
#        205760
#        229702
#
# Disc length: 3355 seconds
#
# Revision: 4
# Processed by: cddbd v1.5.2PL0 Copyright (c) Steve Scherf et al.
# Submitted via: ExactAudioCopy v0.99pb3
#
DISCID=bb0d190c
DTITLE=Native - Native
DYEAR=1995
DGENRE=
TTITLE0=Il y a longtemps
TTITLE1=Si la vie demande ca
TTITLE2=Pas le temps
TTITLE3=Terres de feu
TTITLE4=Dans tes bras
TTITLE5=Tu planes sur moi
TTITLE6=Emmene moi
TTITLE7=Les yeux de velours
TTITLE8=Quand c'est pour moi
TTITLE9=Poussieres d'etoiles
TTITLE10=sometimes it snows in April
TTITLE11=Si la vie demande ca (Indigenous remix)
EXTD=French Soul r&b group
EXTT0=
EXTT1=
EXTT2=
EXTT3=
EXTT4=
EXTT5=
EXTT6=
EXTT7=
EXTT8=
EXTT9=
EXTT10=
EXTT11=
PLAYORDER=
